<svg width="76" height="76" viewBox="0 0 76 76" fill="none" xmlns="http://www.w3.org/2000/svg">
<path d="M76 38C76 58.9868 58.9868 76 38 76C17.0132 76 0 58.9868 0 38C0 17.0132 17.0132 0 38 0C58.9868 0 76 17.0132 76 38Z" fill="#41D070" fill-opacity="0.72"/>
<path d="M11.5082 27.9394C8.46612 30.3251 7.98476 34.6845 10.4331 37.6764L23.4493 53.5826C25.8976 56.5746 30.3485 57.066 33.3906 54.6804L41.8855 48.0185C44.9276 45.6328 45.409 41.2734 42.9607 38.2814L29.9445 22.3753C27.4962 19.3833 23.0453 18.8919 20.0032 21.2775L11.5082 27.9394Z" fill="black"/>
<path d="M16.3607 30.9805C15.0569 32.0029 14.8506 33.8713 15.8999 35.1535L27.1051 48.8467C28.1544 50.1289 30.0619 50.3396 31.3657 49.3171L37.5708 44.451C38.8745 43.4286 39.0808 41.5603 38.0315 40.278L26.8263 26.5849C25.777 25.3026 23.8695 25.092 22.5657 26.1144L16.3607 30.9805Z" fill="#FFFFD3"/>
<path d="M35.5082 25.9815C32.4661 28.3672 31.9848 32.7266 34.4331 35.7185L47.4493 51.6247C49.8976 54.6167 54.3485 55.1081 57.3906 52.7225L65.8855 46.0606C68.9276 43.6749 69.409 39.3155 66.9607 36.3236L53.9445 20.4174C51.4962 17.4254 47.0453 16.934 44.0032 19.3196L35.5082 25.9815Z" fill="black"/>
<path d="M40.3607 29.0226C39.0569 30.045 38.8506 31.9134 39.8999 33.1956L51.1051 46.8888C52.1544 48.1711 54.0619 48.3817 55.3657 47.3592L61.5708 42.4931C62.8745 41.4707 63.0808 39.6024 62.0315 38.3201L50.8263 24.627C49.777 23.3447 47.8695 23.1341 46.5657 24.1565L40.3607 29.0226Z" fill="#FFFFD3"/>
<path d="M43.5093 46.3777L48.7788 42.2476L51.4073 45.4615L43.5093 46.3777Z" fill="#FFFFD3"/>
<path d="M34.1131 27.4693L28.7128 32.5684L24.0001 27.7852L34.1131 27.4693Z" fill="#FFFFD3"/>
</svg>
